<?xml version="1.0" standalone="no"?>
<!DOCTYPE svg PUBLIC "-//W3C//DTD SVG 20010904//EN"
 "http://www.w3.org/TR/2001/REC-SVG-20010904/DTD/svg10.dtd">
<svg version="1.0" xmlns="http://www.w3.org/2000/svg"
 width="300.000000pt" height="300.000000pt" viewBox="0 0 300.000000 300.000000"
 preserveAspectRatio="xMidYMid meet">
<metadata>
Created by potrace 1.10, written by Peter Selinger 2001-2011
</metadata>
<g transform="translate(0.000000,300.000000) scale(0.100000,-0.100000)"
fill="#000000" stroke="none">
<path d="M1435 2514 c-129 -20 -239 -76 -331 -168 -113 -113 -164 -236 -164
-402 0 -55 5 -86 15 -100 8 -10 15 -17 16 -14 0 3 2 59 3 125 2 103 6 130 29
188 34 86 72 141 143 206 69 63 132 96 232 122 187 48 360 0 503 -141 110
-108 159 -228 159 -392 0 -80 3 -98 15 -98 25 0 24 152 -2 255 -31 124 -133
264 -243 335 -98 63 -266 100 -375 84z"/>
<path d="M1365 2441 c-156 -45 -288 -166 -341 -314 -18 -50 -34 -174 -27 -211
10 -53 28 -19 30 57 10 353 390 573 703 406 32 -17 86 -59 118 -93 90 -93 128
-180 141 -320 8 -89 31 -104 31 -21 0 227 -157 434 -379 499 -71 21 -199 19
-276 -3z"/>
<path d="M1455 2363 c11 -32 11 -44 -1 -72 -17 -41 -17 -41 0 -41 8 0 17 8 19
18 4 14 5 14 6 1 1 -12 11 -16 40 -15 l40 1 3 72 c2 52 0 73 -9 73 -8 0 -13
-23 -16 -67 l-3 -68 -2 68 c-1 37 -6 67 -12 67 -6 0 -10 -30 -11 -67 0 -56 -2
-64 -10 -43 -6 14 -8 44 -5 68 5 41 5 42 -23 42 l-29 0 13 -37z"/>
<path d="M1307 2354 c-3 -4 7 -34 24 -68 l30 -61 -31 33 c-17 18 -30 43 -30
57 0 15 -6 25 -15 25 -10 0 -12 -6 -8 -17 6 -15 4 -16 -9 -6 -29 24 -27 0 2
-34 19 -22 30 -45 30 -64 0 -20 4 -29 13 -26 6 2 10 12 9 22 -3 16 -1 17 11 7
15 -12 47 -7 47 8 0 9 -59 130 -64 130 -1 0 -5 -3 -9 -6z"/>
<path d="M1687 2288 c-30 -47 -35 -63 -26 -74 17 -20 31 -17 24 6 -6 20 16 62
47 91 14 13 15 19 6 26 -10 8 -23 -5 -51 -49z"/>
<path d="M1124 2196 c-4 -11 -2 -21 7 -27 11 -6 8 -9 -8 -9 -14 0 -23 -6 -23
-15 0 -12 8 -14 38 -9 35 5 39 3 64 -31 16 -23 28 -32 33 -25 4 6 1 17 -5 25
-10 12 -9 15 9 15 36 0 23 18 -19 25 -28 5 -47 16 -64 38 -22 28 -26 29 -32
13z"/>
<path d="M1490 2192 c0 -11 -7 -35 -15 -54 -12 -31 -12 -38 0 -54 20 -27 18
-57 -5 -77 -26 -22 -25 -65 2 -94 20 -21 21 -27 10 -58 -11 -28 -10 -42 4 -85
17 -51 33 -53 34 -4 0 11 5 25 12 32 9 9 9 18 0 37 -17 37 -15 62 8 85 11 11
20 31 20 43 0 13 -9 32 -20 42 -22 20 -27 71 -8 77 10 4 9 17 -2 63 -15 57
-40 86 -40 47z m37 -218 c7 -19 -20 -49 -36 -40 -12 8 -15 39 -4 49 12 12 33
7 40 -9z"/>
<path d="M1814 2170 c-29 -16 -54 -26 -58 -23 -3 4 -6 0 -6 -9 0 -27 11 -26
67 8 31 19 62 34 67 34 14 0 -7 -14 -66 -46 -27 -13 -48 -29 -48 -35 0 -6 3
-9 8 -7 4 2 33 16 65 32 58 28 62 32 51 60 -9 22 -22 20 -80 -14z"/>
<path d="M1060 2022 c0 -5 10 -14 23 -20 l22 -11 -22 0 c-19 -1 -23 -7 -23
-31 l0 -30 78 0 78 0 -2 40 c-2 43 -2 43 -53 34 -23 -5 -43 -1 -61 10 -32 18
-40 20 -40 8z m115 -52 c14 -6 0 -8 -45 -8 -50 0 -58 2 -35 8 40 10 56 10 80
0z"/>
<path d="M1790 1993 c0 -10 24 -13 86 -13 113 0 110 21 -4 23 -60 2 -82 -1
-82 -10z"/>
<path d="M776 1963 c-4 -9 -1 -23 7 -30 12 -12 16 -12 26 1 16 19 8 46 -13 46
-7 0 -17 -8 -20 -17z"/>
<path d="M2182 1965 c-15 -8 -20 -15 -13 -19 6 -4 11 -4 11 0 0 4 8 0 19 -10
16 -15 20 -15 31 -1 14 17 7 45 -12 44 -7 -1 -24 -7 -36 -14z"/>
<path d="M1790 1950 c0 -12 14 -14 86 -12 109 4 106 22 -4 25 -67 2 -82 0 -82
-13z"/>
<path d="M1020 1840 c-31 -48 -34 -51 -73 -48 -24 1 -42 -3 -44 -9 -3 -7 -18
-29 -35 -50 -35 -44 -113 -196 -152 -298 -15 -38 -36 -78 -47 -87 -12 -10 -19
-27 -17 -40 l3 -23 260 -6 c280 -7 417 -23 501 -61 59 -26 127 -28 172 -4 72
38 233 58 505 63 245 5 258 7 268 26 9 16 7 24 -13 42 -14 13 -30 38 -37 56
-37 97 -125 277 -163 334 -15 22 -28 46 -28 53 0 9 -12 11 -47 7 l-48 -6 -28
45 c-17 27 -36 46 -47 46 -10 0 -60 -21 -111 -46 -124 -63 -244 -176 -292
-275 -17 -37 -34 -68 -37 -68 -4 -1 -11 14 -18 33 -24 64 -109 172 -177 223
-65 49 -198 124 -241 137 -18 5 -27 -2 -54 -44z m113 -16 c148 -75 256 -170
319 -284 33 -58 59 -140 45 -140 -3 0 -19 12 -35 28 -45 41 -133 107 -167 124
-40 21 -301 98 -331 98 -13 0 -24 3 -24 6 0 9 68 123 97 162 13 17 28 32 34
32 5 0 33 -12 62 -26z m864 -45 c23 -35 52 -76 63 -91 24 -31 39 -23 -125 -63
-164 -40 -280 -101 -372 -194 -19 -18 -36 -31 -39 -28 -7 7 12 76 35 130 39
90 173 217 294 277 44 22 85 39 91 37 6 -2 30 -32 53 -68z m-1037 -26 c0 -2
-25 -38 -56 -79 -73 -100 -74 -101 -27 -109 21 -4 52 -11 68 -15 26 -7 24 -8
-20 -8 -27 0 -66 5 -87 11 l-36 12 41 71 c62 105 86 134 102 127 8 -3 15 -7
15 -10z m1194 -89 c31 -52 56 -99 56 -105 0 -5 -12 -9 -27 -9 -16 0 -53 -2
-83 -5 -60 -6 -38 8 33 20 20 3 37 12 37 18 0 7 -27 49 -61 92 -52 69 -58 80
-42 86 10 4 21 5 25 3 3 -2 31 -47 62 -100z m-1113 -58 c161 -42 296 -97 316
-128 4 -7 28 -26 51 -41 58 -38 48 -44 -19 -12 -30 14 -61 25 -69 25 -8 1 -26
7 -40 16 -23 14 -24 14 -2 9 12 -3 31 -8 42 -11 11 -3 20 -1 20 4 0 12 -80 43
-92 36 -4 -3 -48 6 -96 19 -48 14 -125 33 -172 43 -47 9 -89 21 -94 25 -14 12
24 50 43 44 9 -2 59 -16 112 -29z m1082 9 c21 -29 25 -26 -83 -50 -41 -10
-100 -23 -131 -31 -31 -7 -81 -16 -110 -20 -63 -8 -83 -17 -124 -54 -16 -15
-48 -37 -70 -49 -39 -22 -39 -22 15 29 91 86 186 129 400 183 77 20 83 20 103
-8z m-984 -120 c108 -31 250 -94 299 -132 18 -14 32 -27 29 -29 -2 -2 -34 12
-72 31 -38 19 -90 37 -115 40 -25 4 -80 13 -124 21 -47 8 -144 14 -243 14
-127 0 -164 3 -160 13 7 20 281 12 401 -13 111 -23 124 -24 110 -11 -26 26
-183 54 -324 58 -162 5 -177 7 -162 26 7 8 48 12 139 11 109 -1 143 -5 222
-29z m1091 20 c17 -21 8 -23 -160 -28 -90 -4 -164 -12 -195 -21 -27 -9 -59
-16 -70 -16 -11 -1 -33 -7 -50 -16 -29 -14 -29 -14 27 -9 31 3 85 12 119 21
81 21 350 26 356 7 4 -10 -32 -13 -154 -14 -87 -1 -171 -5 -188 -9 -17 -4 52
-8 162 -9 116 -1 194 -5 198 -11 4 -7 -94 -10 -287 -10 l-293 0 -70 -34 c-70
-35 -95 -39 -59 -10 26 21 172 90 269 127 70 26 98 31 220 37 77 4 145 7 151
8 6 1 17 -5 24 -13z m-443 -32 c-9 -8 -107 -43 -107 -37 0 8 76 43 94 44 11 0
16 -3 13 -7z m-534 -92 c84 -23 187 -70 187 -84 0 -5 -8 -6 -17 -2 -10 4 -45
11 -78 15 -33 4 -73 14 -90 20 -20 9 -116 14 -283 18 -166 3 -250 8 -244 14 7
7 107 9 266 7 170 -3 248 -1 233 6 -12 5 -129 9 -259 10 -217 0 -269 4 -220
19 9 2 109 3 222 2 174 -3 217 -6 283 -25z m284 -25 c-5 -15 -49 -14 -54 1 -4
12 24 22 45 15 7 -2 11 -10 9 -16z m270 17 c-3 -5 96 -6 220 -5 124 2 236 1
249 -2 59 -15 10 -21 -178 -21 -236 0 -425 -9 -436 -20 -4 -4 12 -5 36 -2 71
9 40 -4 -44 -19 -117 -20 -116 -10 2 41 70 31 163 48 151 28z m-598 -69 c126
-18 169 -28 239 -56 l52 -22 53 21 c56 23 173 46 307 63 111 13 470 13 470 0
0 -6 -48 -10 -122 -10 -259 0 -529 -32 -652 -76 -48 -17 -49 -17 -128 10 -118
40 -246 55 -508 62 -131 3 -236 9 -238 15 -6 16 407 11 527 -7z m330 -17 c6
-8 8 -17 4 -20 -11 -11 -71 -8 -79 4 -15 25 54 40 75 16z"/>
<path d="M1083 1783 c-13 -2 -23 -8 -23 -13 0 -11 68 -25 77 -16 7 6 -16 37
-26 35 -3 -1 -16 -4 -28 -6z"/>
<path d="M1185 1730 c17 -11 55 -36 85 -56 30 -20 75 -55 99 -78 40 -37 43
-38 27 -11 -21 35 -37 49 -130 115 -38 28 -78 50 -90 50 -18 0 -17 -3 9 -20z"/>
<path d="M996 1692 c14 -13 184 -65 190 -59 10 9 -52 36 -118 52 -73 17 -86
18 -72 7z"/>
<path d="M1186 1669 c3 -6 38 -32 78 -57 39 -25 97 -70 129 -100 39 -38 57
-50 57 -38 0 27 -95 112 -181 161 -81 47 -95 52 -83 34z"/>
<path d="M1876 1765 c-33 -14 -63 -25 -68 -25 -10 0 -140 -99 -150 -114 -16
-24 4 -15 49 21 73 60 124 87 135 71 7 -10 11 -9 22 4 7 10 30 25 50 33 20 9
34 20 31 25 -3 6 -7 10 -8 10 -1 -1 -29 -12 -61 -25z"/>
<path d="M1898 1669 c-32 -16 -58 -32 -58 -35 0 -3 8 -3 18 1 9 4 53 20 97 36
74 26 77 28 40 28 -25 0 -62 -11 -97 -30z"/>
<path d="M1725 1623 c-95 -65 -132 -98 -151 -135 -21 -40 -4 -35 41 13 22 22
79 70 128 106 48 36 87 68 87 70 0 12 -36 -6 -105 -54z"/>
<path d="M487 1095 c-6 -37 1 -46 17 -23 7 9 24 20 39 23 l27 7 0 -90 c0 -67
-4 -94 -15 -106 -23 -23 -19 -26 35 -26 48 0 66 12 35 24 -12 4 -15 25 -15 96
l0 90 26 0 c15 0 33 -8 40 -17 17 -24 25 -13 18 23 l-6 29 -98 0 -98 1 -5 -31z"/>
<path d="M770 1119 c0 -4 7 -9 15 -13 12 -4 15 -25 15 -101 0 -76 -3 -97 -15
-101 -31 -12 -13 -24 35 -24 48 0 66 12 35 24 -12 4 -15 24 -15 94 0 67 4 93
15 102 25 21 17 28 -35 27 -27 0 -50 -4 -50 -8z"/>
<path d="M974 1116 c18 -14 18 -21 6 -111 -8 -63 -18 -99 -26 -102 -28 -10
-13 -23 26 -23 38 0 52 12 30 25 -11 7 -12 67 -1 104 6 21 11 14 41 -52 19
-42 37 -76 40 -76 3 0 18 30 34 67 16 37 33 71 37 76 4 4 11 -18 14 -50 6 -47
5 -59 -9 -69 -26 -20 -19 -25 34 -25 52 0 60 5 36 24 -9 7 -16 43 -20 102 -6
77 -4 93 9 98 25 9 17 26 -14 26 -26 0 -32 -8 -70 -87 l-42 -87 -42 85 c-38
75 -45 84 -72 87 -28 2 -29 2 -11 -12z"/>
<path d="M1324 1119 c-2 -4 3 -9 11 -13 24 -9 22 -194 -2 -212 -15 -11 -5 -13
74 -14 l91 0 7 31 c9 41 2 45 -28 15 -45 -45 -87 -32 -87 25 0 37 2 39 30 39
21 0 30 -5 30 -16 0 -8 5 -12 10 -9 6 3 10 22 10 41 0 19 -4 34 -10 34 -5 0
-10 -4 -10 -10 0 -5 -13 -10 -30 -10 -28 0 -30 3 -30 34 0 19 5 38 10 41 18
11 70 -6 70 -22 0 -8 5 -13 11 -11 6 2 10 7 10 11 -1 4 -1 17 -1 30 0 21 -4
22 -81 22 -44 0 -83 -3 -85 -6z"/>
<path d="M1584 1119 c-2 -4 3 -9 11 -13 23 -9 22 -201 -1 -210 -30 -12 -7 -17
79 -19 l84 -2 10 37 c13 49 6 54 -27 18 -29 -31 -63 -39 -76 -18 -11 17 -5
181 7 193 5 5 9 11 9 15 0 7 -91 6 -96 -1z"/>
<path d="M1834 1119 c-2 -4 3 -9 11 -13 22 -8 22 -206 0 -206 -8 0 -15 -4 -15
-10 0 -6 36 -10 89 -10 l89 0 6 32 c8 40 0 48 -20 19 -12 -17 -24 -21 -52 -19
-35 3 -37 5 -40 41 -3 35 -2 37 27 37 17 0 31 -4 31 -10 0 -5 6 -10 14 -10 17
0 14 62 -3 68 -6 2 -11 -1 -11 -7 0 -6 -14 -11 -31 -11 -29 0 -30 2 -27 38 3
32 7 37 30 40 17 2 34 -4 48 -18 26 -26 34 -21 26 17 -6 28 -7 28 -87 28 -45
0 -83 -3 -85 -6z"/>
<path d="M2135 1105 c-34 -33 -32 -68 5 -97 84 -64 86 -66 74 -85 -17 -28 -49
-27 -72 1 -26 34 -34 33 -30 -6 5 -54 83 -64 128 -16 35 38 24 77 -35 116 -34
23 -50 41 -50 55 0 31 49 36 67 8 17 -28 28 -26 28 4 0 48 -75 61 -115 20z"/>
<path d="M2376 1109 c-47 -37 -29 -83 58 -142 31 -21 33 -42 6 -57 -28 -15
-55 -5 -68 25 -16 34 -32 32 -32 -4 0 -34 17 -50 62 -57 70 -12 129 78 81 122
-10 8 -34 25 -53 38 -43 27 -47 60 -8 64 19 2 31 -3 40 -17 18 -29 38 -26 38
4 0 45 -78 60 -124 24z"/>
<path d="M1004 771 c-2 -2 -4 -15 -4 -28 0 -26 15 -31 24 -8 3 8 12 15 21 15
12 0 15 -12 15 -54 0 -30 -4 -58 -10 -61 -21 -13 -9 -25 25 -25 19 0 35 5 35
10 0 6 -4 10 -10 10 -6 0 -10 27 -10 60 0 47 3 60 15 60 9 0 18 -7 21 -15 10
-25 26 -17 22 11 -3 25 -6 26 -71 27 -38 1 -71 0 -73 -2z"/>
<path d="M1231 754 c-40 -33 -43 -83 -6 -119 53 -54 145 -15 145 61 0 38 -47
84 -85 84 -13 0 -37 -12 -54 -26z m95 -29 c21 -31 11 -73 -19 -84 -49 -19 -92
39 -63 84 22 33 60 33 82 0z"/>
<path d="M1440 772 c0 -4 5 -13 10 -18 12 -12 2 -124 -11 -124 -5 0 -9 -4 -9
-10 0 -5 13 -10 29 -10 28 0 28 1 24 53 l-3 52 26 -54 26 -53 26 53 26 54 4
-40 c2 -22 -1 -41 -7 -43 -24 -8 -9 -22 24 -22 19 0 35 5 35 10 0 6 -4 10 -10
10 -6 0 -10 28 -10 65 0 39 4 65 11 65 5 0 7 5 4 10 -16 26 -45 8 -71 -41
l-26 -52 -29 52 c-20 34 -36 51 -49 51 -11 0 -20 -4 -20 -8z"/>
<path d="M1705 693 l0 -83 56 0 c50 0 57 3 62 22 8 30 1 35 -21 14 -23 -20
-52 -11 -52 16 0 17 5 19 25 14 22 -6 25 -3 25 19 0 27 -9 32 -28 13 -16 -16
-35 3 -26 25 8 22 43 22 60 0 12 -16 13 -15 14 13 l0 31 -57 -1 -58 -1 0 -82z"/>
<path d="M1910 760 c-11 -11 -20 -26 -20 -33 0 -17 28 -43 58 -51 12 -4 22
-13 22 -21 0 -20 -31 -27 -50 -10 -22 20 -30 19 -30 -4 0 -34 66 -43 93 -13
10 10 17 25 17 34 0 17 -26 42 -52 51 -24 9 -23 37 1 37 11 0 23 -4 26 -10 10
-17 25 -11 25 9 0 35 -59 42 -90 11z"/>
<path d="M895 720 c-4 -7 -3 -16 3 -22 14 -14 45 -2 40 15 -6 16 -34 21 -43 7z"/>
<path d="M2067 723 c-14 -13 -6 -33 13 -33 13 0 20 7 20 20 0 19 -20 27 -33
13z"/>
<path d="M640 710 c0 -6 47 -10 120 -10 73 0 120 4 120 10 0 6 -47 10 -120 10
-73 0 -120 -4 -120 -10z"/>
<path d="M2120 710 c0 -6 48 -10 125 -10 77 0 125 4 125 10 0 6 -48 10 -125
10 -77 0 -125 -4 -125 -10z"/>
</g>
</svg>
