<?xml version="1.0" standalone="no"?>
<!DOCTYPE svg PUBLIC "-//W3C//DTD SVG 20010904//EN"
 "http://www.w3.org/TR/2001/REC-SVG-20010904/DTD/svg10.dtd">
<svg version="1.0" xmlns="http://www.w3.org/2000/svg"
 width="300.000000pt" height="300.000000pt" viewBox="0 0 300.000000 300.000000"
 preserveAspectRatio="xMidYMid meet">
<metadata>
Created by potrace 1.10, written by Peter Selinger 2001-2011
</metadata>
<g transform="translate(0.000000,300.000000) scale(0.100000,-0.100000)"
fill="#000000" stroke="none">
<path d="M1369 2778 c-108 -14 -195 -39 -286 -83 -51 -25 -96 -45 -101 -45 -5
0 -17 9 -27 20 -24 27 -56 22 -72 -10 -10 -20 -9 -29 4 -49 15 -24 15 -26 -22
-59 l-37 -34 -29 28 c-25 24 -32 26 -54 16 -14 -7 -30 -23 -35 -37 -5 -14 -17
-25 -28 -25 -24 0 -59 -37 -67 -71 -6 -24 -12 -27 -59 -31 -82 -7 -129 -53
-145 -140 -4 -25 -12 -42 -19 -40 -9 1 -9 -3 0 -18 7 -11 16 -20 20 -20 5 0 8
-8 8 -19 0 -14 -10 -20 -38 -25 -85 -13 -127 -76 -119 -175 4 -48 2 -71 -9
-85 -12 -17 -12 -22 2 -37 15 -16 15 -21 -1 -51 -32 -63 -31 -119 3 -191 l30
-65 -24 -13 c-76 -40 -84 -176 -14 -244 23 -22 27 -32 20 -46 -6 -10 -9 -33
-9 -51 1 -18 1 -86 0 -152 -2 -74 2 -123 8 -129 18 -18 13 -38 -14 -59 -32
-25 -32 -53 -1 -73 19 -13 29 -14 45 -5 20 10 22 17 25 63 1 10 7 21 14 25 6
5 14 28 17 53 11 93 16 109 31 109 13 0 15 -13 10 -83 -7 -96 -7 -93 0 -263 5
-122 3 -136 -17 -179 l-23 -48 23 -18 c13 -11 33 -19 44 -19 20 0 20 -1 -3
-25 -50 -53 30 -73 137 -34 32 12 62 25 67 29 12 11 36 1 36 -15 0 -8 12 -27
26 -44 31 -37 84 -42 124 -11 30 23 44 25 59 6 13 -16 45 -11 61 9 8 10 8 19
-1 34 -11 16 -10 25 1 46 13 24 15 25 27 9 7 -9 10 -21 7 -25 -2 -4 -5 -25 -6
-45 -2 -43 20 -64 67 -64 50 0 70 21 67 71 -2 38 0 42 11 25 58 -91 122 -116
195 -78 35 18 41 19 55 5 21 -21 84 -19 109 3 22 21 24 20 51 -4 14 -12 45
-17 148 -19 71 -2 137 1 147 6 10 5 24 6 33 1 8 -5 38 -11 67 -13 43 -4 58 -1
87 19 25 17 43 22 63 18 18 -4 34 -1 43 9 13 13 19 11 44 -9 57 -45 136 -23
164 44 l12 30 37 -18 c67 -32 159 -51 187 -38 30 14 31 23 5 45 -11 10 -20 21
-20 25 0 3 25 12 55 18 43 9 60 18 80 44 87 115 69 256 -52 398 l-46 53 26 3
c32 4 67 -14 67 -33 0 -19 40 -65 56 -65 14 0 54 47 54 63 0 5 -16 25 -35 43
l-35 33 -1 136 c-1 78 -5 138 -11 141 -5 4 6 23 25 43 20 20 41 49 46 64 25
64 3 152 -46 184 -26 18 -24 39 10 85 29 40 28 121 -3 176 -22 39 -23 44 -8
59 15 14 15 19 2 44 -12 23 -12 36 -2 73 10 37 9 51 -6 89 -18 48 -35 67 -79
90 -25 13 -26 17 -14 28 18 17 3 56 -24 64 -11 4 -22 18 -25 33 -19 88 -65
132 -144 140 -39 4 -51 9 -56 26 -7 25 -53 76 -68 76 -6 0 -24 16 -39 35 -33
42 -58 44 -87 8 l-21 -27 -20 21 c-20 20 -20 22 -4 47 17 26 17 26 -26 71 -24
25 -47 45 -51 45 -3 0 -19 -11 -35 -24 l-29 -25 -70 34 c-174 84 -365 117
-545 93z m277 -39 c246 -43 481 -200 618 -410 16 -26 48 -131 41 -137 -8 -8
-25 10 -25 26 0 45 -142 243 -185 258 -11 4 -37 6 -57 5 -30 -2 -47 5 -85 34
-55 42 -140 84 -233 115 -48 16 -100 23 -195 27 -113 5 -142 3 -220 -17 -109
-27 -221 -77 -290 -129 -54 -41 -70 -41 -72 -3 -2 19 1 21 18 12 15 -9 21 -7
25 5 4 9 2 21 -4 27 -8 8 -22 1 -51 -21 -93 -74 -196 -212 -227 -303 -21 -65
-37 -49 -19 21 22 82 60 138 164 241 138 136 296 219 475 249 74 12 253 13
322 0z m-708 -80 c12 -18 11 -24 0 -36 -12 -12 -17 -11 -33 7 -10 11 -13 20
-7 20 7 0 12 7 12 15 0 21 13 19 28 -6z m1124 -31 c-14 -17 -16 -17 -28 -1 -8
12 -9 23 -3 35 9 17 10 17 28 0 16 -15 16 -19 3 -34z m-382 -28 c59 -24 150
-85 150 -102 0 -7 17 -8 48 -4 54 7 94 -8 50 -19 -50 -13 -94 1 -151 48 -160
131 -447 125 -604 -13 -44 -39 -65 -39 -28 -1 33 35 146 97 201 110 22 6 93 9
159 7 95 -3 132 -8 175 -26z m443 13 c4 -3 2 -12 -4 -20 -9 -10 -15 -10 -25
-2 -8 6 -11 15 -8 20 6 11 28 12 37 2z m-471 -58 c81 -32 181 -120 220 -192
99 -182 68 -366 -87 -512 -175 -166 -442 -160 -620 13 -144 141 -166 360 -54
530 113 169 347 239 541 161z m-873 -52 c-12 -20 -12 -20 -31 -1 -19 19 -19
20 -1 33 15 11 20 11 31 1 11 -11 11 -17 1 -33z m1451 32 c10 -13 10 -19 -5
-35 -18 -20 -18 -20 -32 0 -12 17 -12 24 -3 35 16 19 24 19 40 0z m-1130 -45
c11 -7 3 -10 -28 -10 -26 0 -41 4 -37 10 8 13 45 13 65 0z m-370 -35 c13 -16
7 -45 -10 -45 -5 0 -10 7 -10 15 0 17 -9 19 -30 5 -12 -8 -13 -13 -3 -29 17
-27 -5 -41 -24 -16 -17 25 -17 45 4 67 20 22 56 24 73 3z m1594 -8 c17 -26 11
-63 -11 -72 -21 -8 -26 0 -15 22 5 10 7 24 5 31 -6 17 -32 15 -39 -2 -6 -17
-34 -10 -34 8 0 40 71 49 94 13z m-1301 -7 c56 0 86 -4 82 -10 -3 -6 -48 -10
-101 -10 -78 0 -94 -3 -94 -16 0 -9 -5 -12 -12 -8 -7 4 -8 3 -4 -5 9 -13 -43
-173 -124 -386 -77 -199 -173 -494 -166 -510 6 -17 60 -25 181 -27 58 -1 85
-5 65 -8 -19 -3 77 -7 214 -8 137 -1 252 -4 254 -7 3 -3 3 -8 0 -11 -3 -3
-180 -6 -393 -7 -291 -2 -389 1 -397 10 -12 15 11 83 28 83 7 0 14 -12 16 -27
4 -33 28 -41 118 -40 54 0 56 1 15 4 -82 5 -113 13 -119 29 -3 8 8 56 24 107
16 50 28 93 26 95 -2 2 -14 -27 -26 -65 -12 -37 -26 -72 -31 -77 -20 -22 -16
4 13 84 16 47 49 139 73 205 23 66 72 197 107 290 36 94 75 199 87 235 12 36
24 71 26 79 4 8 13 11 28 7 12 -3 62 -6 110 -6z m1081 -57 c10 -32 67 -191
128 -353 60 -162 124 -335 143 -385 31 -84 36 -111 16 -89 -4 5 -21 44 -36 87
-15 42 -29 76 -31 74 -2 -2 11 -46 29 -98 27 -75 37 -94 53 -94 26 0 56 -81
34 -95 -7 -5 -64 -7 -124 -5 -94 4 -261 -1 -613 -18 -35 -2 -63 1 -63 5 0 4
60 9 133 10 l132 2 -132 3 c-77 2 -133 8 -133 13 0 6 133 11 353 12 325 2 336
3 142 8 l-210 6 212 2 c200 2 213 3 226 22 13 18 4 49 -94 318 -59 163 -132
368 -161 455 l-53 157 -92 0 c-50 0 -95 5 -98 10 -4 6 34 10 108 10 l113 0 18
-57z m-1086 18 c-87 -8 -97 -19 -13 -15 38 1 63 -1 60 -7 -7 -10 -91 -69 -99
-69 -3 0 -6 6 -6 14 0 7 -7 19 -15 26 -19 16 -19 6 0 -24 15 -23 14 -25 -17
-44 -18 -12 -35 -17 -36 -11 -5 13 39 122 52 131 6 4 40 7 76 6 l65 -1 -67 -6z
m1196 -178 l32 -93 22 22 c12 13 22 18 22 12 0 -12 -48 -59 -54 -53 -8 9 -106
278 -106 291 1 24 52 -85 84 -179z m-1414 61 c-23 -60 -49 -129 -60 -154 -10
-25 -21 -53 -24 -62 -8 -28 -19 -22 -64 33 -41 50 -52 79 -32 79 6 0 10 -5 10
-11 0 -18 40 -68 63 -81 15 -8 10 2 -15 30 -21 23 -38 50 -37 60 0 15 1 15 12
-2 7 -11 25 -33 41 -50 27 -30 27 -30 7 -2 -23 31 -29 58 -9 38 19 -19 48 -15
48 8 0 31 87 236 97 227 1 -2 -15 -53 -37 -113z m1237 104 c15 -19 46 -118 39
-125 -3 -4 -6 -1 -6 6 0 7 -5 9 -12 5 -7 -4 -8 -3 -4 5 4 6 1 23 -8 36 -9 13
-13 30 -10 38 3 8 -2 19 -10 26 -12 10 -13 7 -6 -24 4 -19 14 -42 20 -51 7 -8
10 -17 7 -20 -10 -10 -27 7 -27 27 0 11 -6 22 -14 25 -8 3 -13 11 -10 19 4 8
-4 13 -22 13 l-28 0 27 -20 c15 -11 27 -27 27 -35 0 -10 -11 -6 -35 16 -20 17
-40 31 -44 31 -5 0 -11 7 -15 15 -4 13 -2 14 14 5 12 -7 20 -7 20 -1 0 5 17
12 38 14 20 2 40 4 43 5 4 1 11 -4 16 -10z m-1423 -29 c32 -15 59 -70 50 -104
-8 -31 -57 -59 -90 -51 -50 13 -52 76 -3 91 24 8 55 -16 45 -34 -10 -15 -36
-14 -36 1 0 9 -3 9 -11 1 -16 -16 -2 -33 25 -33 47 0 62 54 26 90 -29 29 -66
25 -101 -9 -57 -58 -23 -140 89 -214 37 -24 74 -53 82 -63 9 -10 -4 -5 -30 13
-48 32 -110 66 -110 60 0 -2 26 -20 59 -40 55 -34 92 -67 76 -67 -4 0 -37 19
-74 43 -36 23 -79 49 -96 57 -67 35 -100 150 -59 209 37 52 105 74 158 50z
m1883 -33 c38 -41 48 -72 39 -121 -7 -37 -46 -89 -80 -107 -18 -9 -18 -7 5 18
15 16 32 39 38 51 16 32 14 106 -5 129 -15 18 -15 18 -5 -3 15 -30 14 -77 -2
-116 -26 -61 -65 -97 -194 -180 -8 -5 -13 -4 -13 2 0 6 32 32 70 57 39 26 70
49 70 51 0 6 -66 -34 -108 -65 -18 -13 -36 -22 -39 -19 -2 3 15 20 39 37 23
17 42 38 40 45 -1 7 5 16 14 19 12 5 15 2 10 -9 -10 -26 62 34 84 70 42 68 9
155 -59 155 -30 0 -71 -38 -71 -66 0 -34 67 -59 77 -28 2 7 -8 9 -27 6 -36 -5
-43 21 -10 38 29 16 59 3 66 -27 9 -35 -28 -67 -65 -58 -65 15 -80 87 -31 137
28 28 36 30 78 25 37 -4 53 -12 79 -41z m-1463 -16 c-9 -16 -20 -30 -25 -30
-6 0 -8 -4 -5 -8 3 -5 -15 -18 -39 -30 -59 -29 -78 -59 -164 -267 -9 -23 -16
-64 -15 -99 1 -53 0 -57 -12 -41 -19 26 -17 68 5 123 11 26 32 81 47 122 51
140 60 155 129 199 36 23 67 46 70 51 15 24 22 7 9 -20z m989 -37 c31 -17 55
-40 67 -63 30 -61 82 -210 76 -223 -3 -7 -7 -4 -11 9 -10 31 -69 28 -73 -3 -2
-16 2 -23 12 -23 9 0 16 7 16 15 0 27 37 -1 49 -36 14 -39 14 -49 1 -49 -5 0
-10 7 -10 15 0 8 -4 15 -10 15 -5 0 -6 8 -3 18 5 14 4 15 -8 6 -20 -17 -57 0
-71 32 -11 23 -10 28 11 45 26 21 52 24 68 8 6 -6 -6 23 -26 65 -21 42 -36 76
-33 76 3 0 -7 14 -23 30 -16 17 -35 30 -43 30 -17 0 -82 63 -82 80 0 9 7 8 23
-4 12 -8 44 -28 70 -43z m-1014 -37 c-11 -9 -89 -46 -89 -41 0 9 64 45 79 45
8 0 12 -2 10 -4z m995 -10 c19 -8 37 -19 41 -26 4 -6 -11 -2 -34 9 -55 29 -52
18 5 -15 55 -32 89 -100 47 -92 -13 2 -17 11 -15 30 3 23 -3 30 -40 49 -41 21
-58 35 -58 52 0 11 17 9 54 -7z m-994 -16 c0 -5 -20 -18 -45 -29 -53 -24 -61
-38 -9 -16 42 17 69 20 39 3 -11 -6 -28 -20 -38 -32 -13 -15 -20 -17 -24 -8
-7 17 -26 15 -20 -3 7 -17 -9 -30 -18 -15 -13 21 8 52 53 81 49 31 62 35 62
19z m1315 -59 c-9 -18 -20 -29 -24 -27 -4 3 -19 -7 -32 -22 l-24 -27 28 24
c29 27 37 19 10 -11 -9 -10 -14 -21 -11 -24 3 -3 23 22 43 55 33 52 55 75 55
56 0 -17 -33 -65 -67 -98 l-39 -38 -13 27 c-11 24 -9 30 15 55 15 16 32 26 37
22 6 -4 7 -1 2 7 -5 8 -1 18 10 26 26 19 29 11 10 -25z m-315 14 c31 -16 37
-29 20 -40 -6 -3 -13 1 -16 10 -4 8 -18 22 -33 30 -35 19 -8 19 29 0z m-1000
-20 c0 -14 -13 -25 -80 -68 -35 -23 -75 -25 -67 -4 3 7 10 11 16 9 18 -4 85
34 99 57 14 24 32 28 32 6z m993 -18 c20 -19 50 -38 68 -43 26 -7 29 -11 18
-20 -11 -9 -26 -4 -69 25 -30 20 -56 44 -58 54 -5 23 -1 22 41 -16z m-1498
-45 c71 -34 179 -102 172 -108 -3 -3 -43 15 -90 41 -146 79 -267 63 -267 -36
0 -59 50 -85 125 -66 l30 7 -24 -20 c-29 -25 -97 -27 -127 -2 -89 72 -30 210
91 212 17 0 57 -13 90 -28z m2152 -17 c36 -42 42 -83 21 -130 -21 -46 -93 -69
-139 -45 -28 16 -24 31 6 20 32 -12 69 2 91 34 20 31 13 68 -20 101 -46 46
-167 19 -268 -58 -34 -26 -48 -32 -52 -22 -3 9 21 30 68 59 116 72 154 87 211
83 42 -4 54 -10 82 -42z m-1647 -4 c0 -5 -8 -12 -17 -14 -15 -4 -15 -6 5 -12
32 -10 27 -25 -8 -25 -16 0 -30 5 -30 11 0 6 -6 9 -14 6 -8 -3 -20 1 -26 8
-10 12 -9 16 6 22 10 4 19 2 22 -5 3 -9 10 -8 25 3 25 17 37 19 37 6z m1016
-5 c20 5 25 3 22 -7 -3 -8 -11 -14 -19 -14 -8 0 -18 -6 -22 -12 -4 -7 -20 -13
-35 -13 l-27 1 25 21 c16 14 19 19 8 15 -12 -4 -18 -1 -18 9 0 12 4 12 20 4
11 -6 32 -7 46 -4z m-1124 -23 c10 -9 18 -21 18 -27 0 -7 21 -11 53 -10 28 0
56 -2 60 -4 17 -8 -17 -32 -47 -32 -17 0 -37 -4 -45 -9 -8 -5 2 -8 29 -7 66 1
90 -46 49 -98 -26 -34 -62 -34 -77 -1 -10 22 -9 27 13 41 26 17 45 12 45 -12
0 -17 -17 -19 -23 -1 -2 6 -8 9 -12 5 -10 -10 14 -40 26 -32 5 3 14 14 19 24
15 29 -22 64 -58 56 -56 -13 -82 -29 -102 -61 -28 -45 -25 -69 11 -99 55 -47
136 -30 170 36 21 41 25 108 9 139 -6 10 -7 19 -2 19 14 0 32 -50 34 -95 3
-87 -58 -145 -151 -145 -47 0 -57 4 -87 34 -19 19 -34 42 -34 51 0 53 74 136
151 169 l34 15 -37 -3 c-25 -2 -44 -11 -57 -27 -16 -20 -21 -22 -35 -10 -21
17 -33 7 -16 -14 10 -13 9 -15 -8 -15 -11 0 -23 -6 -25 -12 -3 -8 -6 -5 -6 5
-1 28 26 74 48 80 14 3 18 1 14 -10 -4 -11 -1 -14 8 -11 8 2 15 14 17 25 4 24
-24 38 -44 22 -11 -9 -14 -8 -14 3 0 32 42 39 72 11z m1618 12 c0 -2 -24 -16
-52 -29 -64 -31 -152 -85 -146 -91 2 -3 33 11 69 30 69 37 79 40 79 25 0 -7
-141 -80 -155 -80 -1 0 -2 8 -2 18 -1 36 73 93 150 118 47 14 57 16 57 9z
m-1984 -20 c43 -18 124 -75 124 -88 0 -5 -15 1 -32 13 -18 12 -64 37 -103 55
-71 35 -62 51 11 20z m-82 -24 c24 -26 17 -52 -17 -64 -47 -15 -88 38 -55 71
18 18 53 14 72 -7z m2134 7 c7 -7 12 -19 12 -27 0 -21 -30 -51 -51 -51 -21 0
-49 26 -49 45 0 36 62 59 88 33z m-540 -26 c3 -11 0 -12 -16 -3 -11 6 -33 11
-49 10 -22 0 -17 -3 20 -13 59 -16 137 -81 156 -129 29 -78 -32 -133 -137
-125 -50 4 -60 9 -90 44 -18 21 -36 51 -39 66 -3 15 -9 25 -13 23 -5 -3 -6
-15 -3 -28 4 -21 4 -22 -11 -3 -17 21 -22 41 -8 32 4 -3 25 29 47 70 l38 75
50 -3 c31 -2 52 -8 55 -16z m-1469 -25 c36 -17 66 -38 69 -45 3 -8 -14 -4 -44
12 -27 14 -61 28 -76 32 -16 3 -28 12 -28 20 0 20 7 18 79 -19z m1622 -37 c14
-45 5 -90 -17 -90 -12 0 -14 5 -9 18 10 22 10 39 1 85 -10 51 9 41 25 -13z
m-1616 -5 c40 -19 53 -31 52 -45 -1 -11 -2 -20 -3 -20 -1 0 -21 9 -45 20 -24
11 -56 20 -71 20 -15 0 -30 5 -33 10 -10 16 31 12 87 -10 28 -11 54 -18 56
-16 7 7 -52 34 -91 41 -20 4 -40 11 -43 16 -10 17 38 9 91 -16z m1885 15 c0
-5 -10 -10 -22 -10 -13 0 -43 -9 -67 -20 -52 -24 -68 -19 -19 6 58 30 108 41
108 24z m-1528 -40 c-36 -22 -42 -24 -42 -12 0 11 39 30 60 31 8 1 0 -8 -18
-19z m1543 10 c-3 -5 -15 -10 -25 -10 -11 0 -43 -9 -72 -20 -55 -21 -76 -20
-36 1 54 29 145 49 133 29z m-1366 -70 c-1 -23 -2 -23 -9 5 l-8 30 -1 -27 c-2
-42 -16 -33 -17 11 -2 37 -1 38 17 23 10 -9 18 -28 18 -42z m-823 39 c10 -17
-13 -36 -27 -22 -12 12 -4 33 11 33 5 0 12 -5 16 -11z m303 -19 c47 -25 41
-24 -49 5 -63 21 -68 24 -31 20 23 -3 59 -14 80 -25z m1900 26 c-4 -4 -75 -25
-139 -41 -23 -6 -23 -5 -5 6 36 23 163 54 144 35z m207 -7 c10 -17 -13 -36
-27 -22 -12 12 -4 33 11 33 5 0 12 -5 16 -11z m-1769 -44 c47 -53 49 -65 7
-65 -22 0 -37 6 -41 15 -9 25 6 31 21 9 12 -15 17 -17 27 -6 11 10 10 12 -3
12 -9 0 -23 11 -32 25 -17 26 -40 26 -30 1 3 -8 1 -17 -5 -21 -17 -10 -24 21
-11 44 15 30 32 26 67 -14z m-353 2 c54 -24 39 -32 -25 -13 -62 19 -174 22
-163 5 4 -8 -1 -9 -17 -4 -19 5 -21 4 -9 -4 8 -6 12 -11 8 -11 -3 0 -14 -3
-24 -7 -12 -4 -15 -3 -10 5 12 19 1 14 -20 -10 -10 -12 -13 -18 -5 -13 9 5 12
3 9 -6 -3 -8 -11 -14 -18 -14 -29 0 -31 -115 -4 -152 28 -38 94 -61 126 -45
23 12 23 12 0 6 -29 -7 -85 11 -107 36 -28 31 -31 93 -6 133 50 81 148 102
265 57 49 -18 20 -23 -34 -5 -97 32 -176 7 -214 -69 -15 -31 -16 -41 -6 -67
16 -38 46 -59 86 -59 37 0 84 34 84 60 0 17 -3 17 -25 -5 -28 -29 -51 -31 -83
-9 -48 34 -16 104 48 104 50 0 83 -35 83 -89 0 -149 -223 -158 -261 -11 -20
79 12 147 89 188 38 20 55 23 119 20 41 -2 93 -12 114 -21z m160 -18 c-17 -19
-19 -38 -2 -21 19 19 34 14 46 -13 15 -33 15 -35 -4 -35 -10 0 -14 6 -10 15 3
9 0 15 -9 15 -39 0 7 -88 68 -130 19 -13 46 -41 60 -62 18 -28 26 -34 31 -23
3 8 1 15 -4 15 -5 0 -12 11 -16 25 -3 14 -18 32 -33 40 -14 7 -39 26 -54 41
-25 23 -27 29 -15 40 10 11 22 12 44 5 16 -5 46 -12 66 -16 39 -6 88 -53 88
-83 0 -19 -26 -63 -64 -107 -21 -25 -27 -28 -36 -15 -5 8 -10 27 -10 41 0 27
-9 37 -107 115 -21 17 -47 47 -57 66 -18 34 -18 36 -1 82 12 31 21 43 26 34 5
-7 2 -19 -7 -29z m1872 22 c115 -52 138 -212 40 -272 -43 -26 -108 -34 -142
-17 -68 32 -95 128 -49 173 47 48 135 25 135 -36 0 -57 -74 -78 -115 -33 -20
21 -25 23 -25 10 0 -32 46 -66 88 -66 98 0 132 105 56 171 -29 25 -143 10
-188 -24 -33 -25 -34 -26 -39 -6 -8 30 44 52 125 53 37 1 60 4 50 8 -30 12
-90 8 -138 -8 -58 -19 -69 -12 -14 10 61 24 159 21 201 -7 63 -42 87 -136 47
-184 -21 -25 -77 -45 -112 -39 -29 6 -30 5 -6 -5 36 -15 89 -2 122 31 35 35
38 98 8 148 -23 38 -25 46 -7 36 8 -5 7 -2 -2 9 -8 10 -16 16 -18 13 -3 -2
-23 4 -46 15 -51 23 -107 24 -173 4 -58 -18 -72 -19 -58 -5 40 40 192 52 260
21z m-740 -31 c8 0 22 -16 31 -35 13 -28 14 -39 5 -60 -23 -50 -132 -24 -132
32 0 32 26 63 52 63 16 0 17 3 8 23 l-11 22 17 -22 c9 -13 23 -23 30 -23z
m361 18 c5 -13 10 -40 12 -61 1 -34 -4 -44 -56 -95 -65 -63 -127 -105 -117
-77 4 9 25 29 48 44 70 48 120 141 77 141 -6 0 -8 -6 -5 -14 6 -16 -12 -31
-20 -18 -7 12 16 62 30 62 5 0 15 -5 22 -12 8 -8 12 -8 12 -1 0 6 -7 16 -15
23 -16 14 -20 30 -7 30 5 0 13 -10 19 -22z m-1143 -29 c10 16 48 14 74 -5 28
-19 29 -57 2 -84 -38 -38 -130 -19 -130 26 0 27 31 78 40 64 5 -8 9 -9 14 -1z
m-531 -25 c29 -14 34 -20 25 -34 -10 -16 -12 -16 -30 2 -25 25 -61 38 -111 39
-34 0 -38 2 -22 10 27 12 95 4 138 -17z m657 -6 c0 -7 -4 -30 -9 -50 -5 -21
-5 -36 -1 -33 4 2 11 24 15 47 7 36 9 39 12 17 2 -15 0 -40 -4 -56 -8 -28 -10
-29 -42 -21 -30 8 -36 23 -8 23 7 0 13 19 15 43 2 23 7 42 13 42 5 0 9 -6 9
-12z m549 -79 c1 -13 -36 -39 -54 -39 -3 0 -5 15 -6 33 -1 30 -2 30 -8 7 l-7
-25 -7 25 c-4 14 -6 34 -6 45 0 20 0 20 9 0 8 -19 9 -19 9 -1 1 28 13 12 22
-31 8 -36 8 -36 5 10 -2 26 0 47 5 47 5 0 9 -12 9 -27 0 -16 4 -34 9 -41 5 -8
7 8 5 40 -3 51 -3 52 6 13 5 -22 9 -47 9 -56z m-511 16 c-3 -30 -1 -52 4 -49
4 3 8 23 8 44 0 21 5 42 11 45 7 5 8 -6 5 -32 -6 -38 -6 -38 4 -5 13 40 24 42
15 2 -4 -18 -3 -30 4 -30 5 0 12 10 14 23 2 12 3 -22 3 -75 -2 -115 -15 -138
-77 -138 -43 0 -56 12 -33 31 13 10 17 10 25 -2 6 -10 9 -5 9 18 0 22 -10 42
-34 67 -27 30 -40 36 -73 36 -72 0 -125 -72 -74 -100 29 -15 87 -12 102 6 15
18 2 47 -23 52 -18 3 -52 -27 -42 -37 4 -3 9 0 11 7 6 17 33 15 33 -3 0 -10
-10 -15 -34 -15 -43 0 -52 14 -32 45 32 49 126 23 126 -35 0 -40 -32 -60 -95
-60 -64 0 -95 20 -96 63 -1 30 -1 31 -9 7 -4 -14 -5 -35 -3 -47 6 -26 -14 -32
-24 -7 -11 28 26 88 75 122 55 37 89 40 149 11 48 -23 73 -60 74 -111 0 -27 2
-29 8 -13 5 11 13 39 18 63 10 39 9 42 -11 42 -44 0 -56 20 -50 78 9 69 18 67
12 -3z m915 21 c6 -14 -25 -45 -83 -86 -16 -11 -23 -29 -27 -72 -3 -32 -9 -58
-13 -58 -16 0 -70 90 -70 118 0 42 34 80 78 87 20 4 46 10 57 15 30 13 52 12
58 -4z m-1138 -32 c6 -20 15 -29 25 -27 8 3 4 -5 -10 -16 -35 -29 -40 -26 -40
19 0 30 -4 40 -16 40 -8 0 -12 5 -9 11 12 19 40 4 50 -27z m612 8 c-5 -24 -3
-28 15 -28 27 1 49 -31 29 -43 -35 -22 -74 35 -55 83 10 26 17 18 11 -12z
m337 22 c12 -5 14 -10 6 -19 -5 -7 -16 -30 -23 -51 l-14 -39 -12 38 c-20 60
-2 88 43 71z m-584 -20 c0 -8 -5 -24 -10 -35 -13 -22 -4 -24 30 -4 33 19 88
19 124 0 37 -20 36 -20 29 20 -4 23 -2 35 6 35 6 0 11 -10 12 -22 0 -13 2 -33
3 -45 3 -27 6 -27 -55 -6 -49 18 -53 17 -159 -14 -12 -3 -15 4 -12 41 3 31 9
46 18 46 8 0 14 -7 14 -16z m-824 -10 c-3 -9 -6 -23 -6 -31 0 -13 -3 -13 -15
-3 -23 19 -19 50 6 50 15 0 19 -4 15 -16z m154 -4 c6 -11 27 -29 48 -39 38
-20 85 -65 94 -91 7 -19 -8 -60 -22 -60 -6 0 -8 10 -4 24 15 61 -83 154 -133
127 -30 -15 -49 -67 -33 -86 13 -15 40 -21 40 -8 0 3 -7 14 -15 23 -20 22 -9
49 23 57 32 8 50 -4 86 -56 26 -38 27 -44 13 -58 -21 -21 -99 -28 -152 -13
-43 12 -61 30 -30 30 12 0 13 5 7 18 -5 9 -7 24 -4 32 15 46 36 79 55 85 19 6
20 8 5 12 -22 5 -24 23 -3 23 8 0 19 -9 25 -20z m798 14 c40 -11 23 -19 -43
-19 -61 0 -81 7 -52 18 17 8 68 8 95 1z m752 -4 c0 -5 -7 -10 -15 -10 -8 0
-15 -4 -15 -10 0 -5 9 -10 21 -10 28 0 65 -81 49 -110 -9 -16 -8 -20 5 -20 29
0 15 -17 -24 -28 -69 -21 -145 -10 -157 23 -9 22 6 33 17 13 11 -20 59 -32 99
-23 24 5 31 13 36 41 14 75 -61 114 -119 60 -31 -29 -60 -83 -53 -101 5 -15
-12 -25 -31 -17 -39 14 4 78 91 136 22 15 46 35 53 46 15 21 43 27 43 10z
m-385 -49 c46 -21 66 -42 84 -88 14 -34 9 -63 -10 -63 -6 0 -9 6 -6 13 2 6 1
21 -4 32 -6 17 -8 17 -8 3 -1 -29 -46 -50 -103 -50 -44 0 -56 4 -75 26 -28 33
-28 37 -2 70 36 46 129 28 129 -26 0 -25 -23 -23 -35 5 -12 27 -56 34 -75 12
-33 -39 35 -76 94 -51 43 18 48 47 14 83 -39 41 -133 25 -168 -30 -18 -30 -30
-77 -19 -77 5 0 9 5 9 10 0 15 27 12 33 -4 8 -20 -2 -26 -44 -26 -48 0 -69 27
-69 90 0 33 3 41 10 30 5 -8 10 -27 10 -41 0 -14 7 -34 15 -45 13 -18 14 -16
9 16 -7 44 22 85 80 111 52 23 81 23 131 0z m-343 -22 c28 -15 22 -30 -8 -19
-33 13 -100 13 -125 0 -13 -8 -19 -7 -19 0 0 6 15 17 33 25 32 15 85 12 119
-6z m720 -15 c11 -23 10 -29 -11 -45 l-23 -19 23 0 c12 0 20 -3 17 -6 -3 -3
-25 -5 -49 -6 -30 0 -46 5 -56 18 -18 25 -17 31 12 59 33 34 72 33 87 -1z
m-887 -24 l-6 -29 31 15 c41 21 107 21 146 1 31 -16 31 -16 26 9 -2 13 0 24 6
24 5 0 12 -16 14 -35 2 -19 3 -35 2 -35 -1 0 -18 7 -37 15 -46 19 -134 19
-167 0 -14 -8 -28 -14 -32 -15 -13 0 -9 55 4 68 18 18 20 15 13 -18z m475 -26
c0 -16 -26 -19 -35 -4 -3 5 -12 7 -20 3 -8 -3 -15 -2 -15 1 0 10 43 24 58 19
6 -3 12 -11 12 -19z m-1341 -36 c-32 -57 -42 -63 -56 -30 -11 26 -9 28 30 53
23 15 44 25 46 23 1 -1 -8 -22 -20 -46z m1954 20 c18 -12 33 -22 35 -23 1 -1
-2 -15 -8 -31 l-11 -28 -20 44 c-11 24 -25 48 -32 52 -7 4 -8 8 -4 8 5 0 23
-10 40 -22z m-898 -18 c27 -17 34 -28 37 -63 6 -50 4 -54 -19 -36 -14 11 -15
11 -9 0 7 -10 4 -11 -15 -5 -29 11 -133 11 -174 1 -28 -7 -28 -6 5 9 39 18 99
23 145 11 26 -6 28 -6 10 5 -32 19 -115 15 -163 -9 l-42 -20 0 42 c0 42 1 44
53 70 60 31 117 29 172 -5z m1105 -22 c77 -39 89 -124 28 -193 -50 -58 -137
-65 -193 -17 -31 26 -65 73 -65 88 0 25 29 15 44 -15 31 -59 133 -80 182 -37
22 19 28 33 29 70 1 25 0 44 -3 42 -2 -3 -14 7 -27 22 -39 45 -140 26 -121
-23 5 -14 9 -15 22 -5 11 10 18 10 27 1 16 -16 -8 -32 -42 -29 -59 7 -52 84 9
105 49 17 60 16 110 -9z m-2256 -9 c42 -33 30 -89 -20 -89 -27 0 -38 15 -30
37 5 12 9 13 21 3 18 -15 28 -9 20 12 -11 27 -54 40 -90 28 -59 -20 -81 -80
-50 -139 32 -63 120 -58 188 10 37 36 67 50 67 30 0 -19 -64 -88 -102 -108
-49 -27 -65 -28 -118 -7 -56 22 -84 65 -83 125 1 78 42 118 124 119 32 0 54
-6 73 -21z m-74 -69 c0 -5 -4 -10 -10 -10 -5 0 -10 -7 -10 -15 0 -10 10 -15
31 -15 36 0 36 -23 0 -28 -41 -6 -67 38 -39 66 15 15 28 16 28 2z m2298 -23
c3 -28 -28 -53 -54 -43 -23 9 -16 26 12 26 23 0 26 3 21 25 -3 16 0 24 7 22 6
-2 12 -15 14 -30z m-1375 16 c-23 -2 -64 -2 -90 0 -26 2 -7 3 42 3 50 0 71 -1
48 -3z m685 -25 c242 1 392 -3 392 -8 0 -6 -181 -10 -475 -10 -310 0 -475 -3
-475 -10 0 -7 -134 -9 -387 -8 l-388 3 380 5 c286 4 379 8 378 17 -2 7 6 10
17 8 11 -2 22 1 26 6 4 7 30 8 73 3 36 -4 243 -7 459 -6z m-1358 -28 c0 -23
-4 -30 -20 -30 -20 0 -60 -37 -81 -76 -10 -20 -10 -27 5 -43 18 -20 9 -35 -16
-27 -7 3 -32 10 -55 16 -51 13 -54 23 -11 41 48 20 98 68 115 111 12 29 21 38
39 38 20 0 24 -5 24 -30z m719 14 c2 -2 -154 -4 -347 -4 -258 0 -352 3 -352
11 0 9 89 10 347 5 191 -4 349 -9 352 -12z m1114 -14 c10 -47 82 -119 128
-126 23 -4 39 -12 39 -20 0 -8 -3 -14 -7 -15 -47 -5 -133 -5 -133 0 0 4 5 12
11 18 26 26 -38 113 -82 113 -11 0 -19 6 -19 14 0 29 13 46 35 46 17 0 24 -7
28 -30z m-91 -30 l-4 -30 -382 2 c-209 1 -347 4 -306 8 l75 6 -70 2 c-63 2
-71 4 -71 22 0 20 7 20 381 20 l382 0 -5 -30z m-785 -100 l-2 -109 -38 37 -38
37 -22 -26 c-12 -14 -28 -35 -35 -45 -11 -17 -12 -16 -8 11 3 17 8 70 11 118
8 98 17 105 26 19 l6 -57 2 47 c0 26 6 50 11 53 6 3 10 0 10 -7 0 -9 3 -9 10
2 7 11 10 7 11 -20 l2 -35 7 35 c6 30 8 24 10 -35 3 -61 4 -64 7 -20 10 153
34 149 30 -5z m-157 100 c0 -6 -32 -11 -72 -12 l-73 -2 75 -6 c41 -4 -99 -7
-312 -8 -382 -2 -388 -2 -388 18 0 20 7 20 385 20 250 0 385 -4 385 -10z
m1024 -56 c16 -26 25 -49 20 -54 -5 -4 -83 -10 -174 -13 -91 -3 -239 -10 -330
-16 -282 -17 -362 -19 -351 -8 17 17 93 26 230 27 74 0 131 3 127 7 -4 4 -89
10 -189 14 -100 3 9 4 243 1 417 -5 425 -5 408 14 -19 22 -34 74 -22 74 5 -1
22 -21 38 -46z m-1834 23 c0 -7 -7 -23 -16 -35 -12 -17 -12 -22 -2 -23 7 -1
18 -2 23 -4 6 -1 111 -3 235 -4 128 -1 219 -5 212 -10 -8 -5 52 -11 145 -14
87 -3 168 -9 181 -12 32 -10 27 -28 -5 -21 -16 4 -113 8 -218 11 -104 3 -208
9 -230 15 -22 5 -118 10 -213 10 -195 0 -204 4 -155 64 29 38 43 45 43 23z
m617 -14 c-108 -2 -286 -2 -395 0 -108 1 -19 2 198 2 217 0 306 -1 197 -2z
m773 -3 l-375 -5 373 -3 c240 -1 372 -6 372 -12 0 -6 -135 -10 -384 -10 -379
0 -384 0 -379 20 5 20 13 20 387 18 l381 -3 -375 -5z m-580 -20 c0 -6 -137
-10 -390 -10 -253 0 -390 4 -390 10 0 6 137 10 390 10 253 0 390 -4 390 -10z
m-82 -27 c-49 -2 -127 -2 -175 0 -49 1 -9 3 87 3 96 0 136 -2 88 -3z m-990
-33 c27 -19 244 -80 287 -80 21 0 22 -5 29 -107 3 -65 2 -111 -4 -117 -6 -6
-11 -4 -13 5 -31 107 -41 130 -60 144 -12 8 -25 15 -29 15 -5 0 -8 -117 -8
-260 l0 -260 25 -12 c14 -6 24 -16 22 -21 -3 -9 -161 -77 -179 -77 -14 0 -9
23 11 44 16 18 19 41 23 173 4 145 3 153 -16 159 -19 6 -19 7 2 23 20 15 22
23 19 136 l-2 120 -29 -2 c-35 -3 -51 -23 -72 -93 -13 -42 -15 -63 -7 -93 12
-43 -3 -47 -25 -6 -9 18 -11 57 -6 155 4 91 3 138 -5 153 -15 27 0 28 37 1z
m2352 12 c0 -4 -5 -13 -11 -19 -8 -8 -10 -54 -7 -147 l5 -135 -25 24 c-26 26
-47 32 -57 15 -9 -15 -25 -12 -31 5 -4 9 3 23 16 33 32 26 21 67 -25 89 -31
15 -36 15 -59 -1 -29 -19 -41 -54 -32 -92 4 -14 45 -66 91 -115 46 -49 93
-106 104 -128 66 -129 34 -271 -69 -302 -33 -10 -44 -9 -84 10 -31 15 -53 35
-68 62 -24 43 -38 50 -38 20 0 -23 -18 -37 -30 -25 -8 9 11 166 24 195 17 40
87 51 94 15 3 -12 0 -16 -7 -11 -19 11 -41 -15 -41 -49 0 -32 30 -92 58 -113
22 -18 67 -16 82 2 19 22 15 88 -6 129 -11 20 -52 72 -93 117 -84 92 -111 138
-111 189 1 117 127 213 218 166 30 -15 31 -15 38 7 11 37 64 86 64 59z m-1982
-41 c11 -6 45 -11 74 -11 79 0 158 -11 158 -23 0 -6 -23 -7 -62 -2 -35 4 -103
8 -151 10 -55 2 -101 9 -123 20 -18 9 -34 17 -34 18 0 8 121 -3 138 -12z
m1732 5 c0 -8 -64 -66 -73 -66 -4 0 -21 10 -36 21 -28 21 -33 21 -151 9 -108
-11 -143 -10 -129 5 3 2 60 9 128 14 68 6 126 13 129 16 6 6 132 7 132 1z
m-1465 -16 c-4 -6 8 -10 29 -10 19 0 47 -5 61 -12 28 -13 48 -3 25 13 -11 8
-7 9 15 4 17 -3 66 -8 110 -11 96 -6 116 -11 96 -23 -8 -5 -50 -6 -94 -3 -59
4 -78 2 -73 -6 5 -8 0 -12 -13 -12 -12 0 -21 4 -21 9 0 4 -10 6 -22 4 -13 -2
-44 3 -70 10 -26 8 -47 12 -46 8 5 -43 -15 -34 -26 12 -5 23 -3 27 14 27 12 0
18 -4 15 -10z m925 -5 c5 3 2 -8 -6 -25 -10 -19 -23 -30 -36 -30 -20 0 -21 1
-3 20 18 20 18 20 -16 8 -19 -6 -69 -12 -111 -12 -65 -1 -75 -3 -61 -13 9 -7
39 -13 65 -13 45 0 48 -1 38 -19 -7 -13 -7 -28 0 -46 13 -34 13 -142 0 -150
-5 -3 -7 -18 -4 -33 5 -23 -2 -33 -40 -65 -53 -44 -62 -37 -52 35 7 53 7 49 0
131 -4 46 -3 72 6 82 26 32 -9 67 -69 69 -29 1 -35 15 -18 37 17 22 57 34 57
17 0 -17 174 -11 210 7 14 8 26 9 28 4 2 -5 8 -7 12 -4z m-514 -3 c17 -11 23
-50 10 -55 -7 -3 -24 -3 -38 0 -19 4 -27 12 -30 34 -4 26 -2 29 21 29 14 0 31
-4 37 -8z m662 -22 c7 -11 22 -20 34 -20 l22 0 -21 -21 -21 -21 -25 22 c-14
12 -23 28 -21 35 5 13 -6 12 -88 -10 -17 -4 -28 -3 -28 3 0 15 48 30 95 31 30
1 43 -4 53 -19z m-518 -20 c16 -30 -7 -38 -57 -19 l-28 11 23 18 c25 21 47 17
62 -10z m-449 -29 c-5 -3 -14 -25 -20 -48 -15 -54 -31 -55 -31 -3 0 30 -6 45
-26 64 l-27 24 57 -16 c31 -8 52 -18 47 -21z m1240 -42 c-1 -40 3 -89 9 -108
12 -43 7 -48 -19 -22 -12 12 -34 21 -50 21 -36 0 -49 16 -21 25 45 14 8 75
-46 75 -24 0 -37 -6 -44 -21 -18 -33 3 -67 85 -136 105 -90 136 -164 101 -246
-23 -55 -48 -70 -108 -65 -44 5 -57 11 -85 42 -18 20 -35 36 -38 36 -3 0 -5
-12 -5 -26 0 -18 -5 -25 -17 -22 -14 2 -16 14 -14 68 3 102 12 120 62 120 36
0 43 -11 16 -25 -26 -13 -26 -48 2 -85 37 -51 102 -51 109 -1 6 39 -19 80 -87
142 -84 77 -101 104 -101 158 0 37 6 49 39 82 32 32 46 39 78 39 22 0 48 -7
59 -15 27 -20 30 -19 44 15 21 50 33 30 31 -51z m-1533 54 c47 -6 51 -12 22
-31 -17 -11 -20 -23 -20 -99 0 -63 4 -91 15 -103 14 -15 14 -18 0 -30 -12 -10
-15 -35 -15 -116 0 -94 2 -104 21 -114 11 -7 18 -14 15 -18 -8 -7 -156 -50
-156 -45 0 2 9 16 20 31 15 22 19 46 21 134 2 78 -1 111 -11 123 -11 14 -11
18 -1 25 20 11 15 209 -5 231 -22 25 -17 32 19 25 17 -4 51 -9 75 -13z m210
-28 c2 -2 -2 -11 -8 -22 -8 -14 -4 -40 19 -118 16 -55 31 -93 34 -85 2 8 17
52 31 98 15 45 24 92 21 102 -6 19 -1 20 64 20 67 0 93 -12 56 -26 -23 -9 -22
-159 1 -168 16 -6 16 -8 0 -24 -23 -26 -23 -158 1 -184 9 -10 14 -20 12 -22
-2 -2 -34 -6 -71 -10 -67 -6 -87 2 -52 22 12 7 16 35 20 143 3 86 2 129 -4
119 -10 -16 -51 -158 -72 -247 -11 -50 -30 -73 -30 -37 0 9 -13 62 -29 118
-16 55 -34 121 -39 146 -8 37 -10 19 -11 -101 -1 -119 2 -149 14 -159 24 -20
18 -27 -28 -33 -24 -3 -51 -9 -60 -13 -22 -8 -23 18 -2 36 22 19 21 186 -1
212 -16 16 -16 18 0 24 24 9 23 179 -1 206 -16 18 -14 18 58 12 41 -4 75 -8
77 -9z m1027 -143 c-2 -3 -14 12 -26 32 -24 41 -46 56 -83 56 -25 0 -26 -2
-26 -65 0 -63 1 -65 25 -65 18 0 28 7 35 25 18 47 28 25 28 -60 -1 -107 -14
-124 -32 -42 -5 21 -12 27 -32 27 -25 0 -25 -1 -22 -77 3 -77 3 -78 31 -81 35
-4 72 19 92 58 22 42 35 38 24 -7 -5 -21 -9 -57 -9 -79 l0 -41 -42 7 c-24 5
-80 11 -125 15 -46 4 -83 10 -83 14 0 3 9 12 20 19 17 11 20 23 20 96 0 64 -4
87 -16 97 -14 11 -14 13 0 21 12 7 16 26 16 75 0 55 -4 71 -22 90 l-21 23 104
0 c57 0 111 5 119 10 13 8 16 -3 22 -67 4 -42 5 -79 3 -81z m-531 71 c5 -60
-5 -86 -19 -43 -9 28 -53 60 -84 60 -25 0 -26 -2 -27 -65 0 -61 1 -65 22 -65
16 0 25 9 33 31 6 17 15 28 21 24 11 -7 14 -116 4 -152 -8 -28 -24 -20 -24 11
0 26 -23 50 -42 44 -8 -3 -12 -28 -13 -76 0 -69 1 -72 23 -72 36 0 60 17 88
61 14 23 27 39 29 37 2 -1 -2 -35 -8 -75 l-11 -72 -111 -3 c-60 -2 -112 -2
-114 -1 -2 2 3 11 12 21 21 23 24 171 5 190 -9 9 -9 15 0 24 19 19 16 157 -3
164 -38 15 -6 24 93 26 59 2 110 1 113 -2 4 -3 9 -33 13 -67z m166 58 c0 -5
-7 -11 -15 -15 -23 -8 -22 -151 1 -160 16 -6 16 -8 0 -24 -12 -14 -16 -38 -16
-90 l0 -72 33 0 c38 0 68 24 87 69 14 36 35 42 26 8 -3 -13 -8 -47 -12 -77
l-6 -55 -117 4 c-64 1 -118 5 -120 7 -3 2 5 13 17 24 19 18 22 32 22 92 0 52
-4 76 -16 90 -16 16 -16 18 0 24 13 5 16 21 16 79 0 64 -3 74 -22 88 -22 15
-19 16 50 16 39 1 72 -3 72 -8z m890 -27 c0 -8 -5 -24 -11 -35 -8 -16 -13 -18
-25 -8 -17 14 -18 46 -1 52 24 10 37 7 37 -9z m-1881 -216 c14 -52 9 -204 -7
-220 -19 -19 -14 -55 8 -71 16 -11 18 -16 8 -24 -17 -13 -118 -62 -118 -57 0
1 11 14 25 28 29 29 31 52 9 84 -13 18 -15 53 -15 188 1 92 4 170 6 174 10 16
73 -60 84 -102z m2080 74 c10 -8 12 -15 5 -20 -6 -4 -16 -16 -22 -27 -9 -16
-11 -17 -12 -4 0 9 -7 22 -15 29 -13 10 -12 15 3 35 10 13 19 18 21 12 2 -7
11 -18 20 -25z m-1243 -17 c-2 -42 -15 -74 -17 -44 -2 24 3 74 8 82 9 15 12 5
9 -38z m564 -5 c31 -39 32 -42 15 -60 -10 -11 -31 -20 -47 -20 -27 0 -28 1
-28 54 0 34 5 56 13 59 6 3 13 6 14 6 1 1 16 -17 33 -39z m324 -27 c42 -54 43
-59 15 -74 -25 -13 -35 -5 -70 59 -20 37 -21 45 -9 52 23 15 25 13 64 -37z
m-2089 -52 c-13 -13 -17 -12 -34 3 -18 16 -18 19 -3 35 16 15 18 15 34 -4 14
-17 15 -22 3 -34z m1904 -68 c7 -15 8 -30 3 -35 -12 -12 -46 28 -39 47 9 22
22 18 36 -12z m336 -69 c16 -43 16 -47 1 -62 -16 -16 -19 -15 -42 11 -26 31
-29 48 -14 78 17 31 36 22 55 -27z m-1020 -43 c0 -8 -8 -19 -18 -25 -22 -14
-42 11 -25 32 14 16 43 12 43 -7z m-165 -12 c0 -16 -20 -20 -41 -8 -16 8 -18
13 -9 19 14 9 50 1 50 -11z m109 -74 c13 -36 26 -63 30 -60 3 3 15 32 27 63
20 54 23 57 57 60 34 3 49 -9 28 -23 -13 -7 -13 -223 -1 -230 22 -13 8 -22
-35 -22 -42 0 -57 9 -36 22 11 6 25 122 19 151 -2 11 -15 -12 -32 -59 -16 -43
-32 -75 -35 -70 -4 4 -15 33 -25 63 -28 83 -37 84 -35 2 1 -46 7 -78 15 -87
21 -21 18 -23 -26 -21 -47 2 -56 9 -35 26 17 14 21 95 5 105 -7 4 -7 12 0 25
15 29 12 81 -7 102 -15 17 -14 18 24 18 l39 0 23 -65z m281 55 l65 0 1 -45 c1
-25 -1 -45 -3 -45 -3 0 -14 11 -25 25 -11 14 -30 25 -44 25 -21 0 -24 -5 -24
-35 0 -37 25 -50 36 -20 12 32 24 13 23 -37 0 -51 -1 -52 -16 -30 -26 36 -43
28 -43 -22 0 -42 1 -43 28 -39 15 3 37 17 49 31 29 34 34 27 22 -28 l-10 -45
-80 1 c-80 1 -106 8 -75 20 24 9 23 99 -1 113 -17 9 -17 10 0 16 23 9 25 93 2
101 -24 10 -17 27 8 20 12 -3 51 -6 87 -6z m-630 -52 c-1 -52 -1 -52 -15 -27
-8 15 -21 29 -29 32 -13 5 -15 -11 -15 -99 0 -60 4 -104 9 -104 6 0 10 -4 10
-10 0 -5 -20 -10 -45 -10 -25 0 -45 5 -45 10 0 6 4 10 10 10 6 0 9 37 9 90 0
49 2 94 6 100 14 23 -25 8 -43 -17 -25 -35 -30 -30 -24 24 l4 42 77 4 c42 1
79 4 84 5 4 1 7 -22 7 -50z m187 23 c41 -41 52 -85 36 -143 -34 -118 -148
-130 -189 -21 -10 27 -21 53 -26 59 -5 7 -3 14 7 18 8 3 15 15 15 27 0 11 15
36 34 55 44 44 83 45 123 5z m765 18 c3 -8 10 -9 23 -2 22 11 45 7 45 -9 0 -5
-6 -8 -12 -5 -7 2 -24 0 -37 -5 -23 -8 -51 4 -51 23 0 13 28 11 32 -2z m-111
-10 c15 -7 24 -7 34 1 18 15 22 3 15 -48 l-5 -44 -23 31 c-14 20 -31 31 -47
31 -51 0 -42 -39 16 -66 47 -21 69 -48 69 -84 0 -30 -32 -69 -58 -71 -30 -2
-57 3 -69 12 -7 7 -14 6 -18 -1 -14 -23 -25 -8 -25 34 0 48 11 62 38 51 13 -5
14 -8 3 -14 -30 -19 29 -56 62 -39 30 15 20 46 -22 67 -21 11 -46 28 -55 36
-22 23 -20 65 6 92 23 25 48 29 79 12z m369 -21 c0 -6 7 -20 17 -30 26 -29 7
-33 -42 -7 -43 23 -44 24 -22 36 28 16 47 16 47 1z m-1429 -23 c1 -5 -31 -17
-69 -26 -38 -9 -123 -41 -188 -72 -120 -56 -190 -81 -206 -71 -17 11 -7 21 35
33 23 7 91 35 150 62 102 47 236 91 265 86 7 -1 13 -6 13 -12z m1415 -55 c65
-28 147 -62 182 -75 73 -26 81 -32 58 -41 -21 -8 -139 34 -256 91 -60 29 -116
48 -165 56 -95 15 -100 33 -7 27 55 -4 94 -16 188 -58z m122 5 c12 -14 22 -27
22 -30 0 -7 -84 33 -87 42 -7 21 45 11 65 -12z m-1593 -20 c29 -10 43 -11 52
-3 16 13 39 -4 29 -21 -9 -14 -45 -14 -100 1 -38 10 -48 9 -70 -5 -32 -22 -35
-63 -6 -72 12 -4 27 -1 35 5 19 16 19 31 0 24 -9 -4 -15 0 -15 9 0 35 44 30
56 -5 8 -25 -31 -68 -62 -68 -53 0 -86 66 -53 107 14 16 65 42 84 42 6 0 28
-6 50 -14z m1419 -22 c67 -59 -9 -148 -82 -97 -27 19 -29 60 -3 73 22 12 63
-11 43 -23 -7 -4 -17 -4 -23 0 -7 4 -10 1 -7 -6 8 -25 35 -35 52 -21 24 20 19
48 -10 68 -27 17 -30 17 -134 -14 -23 -6 -51 19 -41 36 8 12 12 12 25 2 8 -7
21 -9 28 -5 19 12 81 21 105 15 12 -3 33 -16 47 -28z m-1724 19 c0 -9 -44 -32
-60 -32 -6 0 -10 5 -10 10 0 6 11 10 25 10 14 0 25 5 25 10 0 6 5 10 10 10 6
0 10 -4 10 -8z m380 -97 c0 -19 -20 -29 -32 -17 -8 8 -7 16 2 26 14 17 30 12
30 -9z m1183 8 c4 -3 2 -12 -4 -20 -9 -10 -15 -10 -25 -2 -8 6 -11 15 -8 20 6
11 28 12 37 2z"/>
<path d="M1370 2701 c0 -15 6 -21 21 -21 25 0 22 33 -4 38 -12 2 -17 -3 -17
-17z"/>
<path d="M1422 2703 c5 -26 38 -29 38 -4 0 15 -6 21 -21 21 -14 0 -19 -5 -17
-17z"/>
<path d="M1480 2699 c0 -14 5 -19 17 -17 26 5 29 38 4 38 -15 0 -21 -6 -21
-21z"/>
<path d="M1535 2710 c-8 -14 3 -30 21 -30 8 0 14 9 14 20 0 21 -24 28 -35 10z"/>
<path d="M1590 2701 c0 -11 4 -22 9 -25 12 -8 34 21 26 34 -11 17 -35 11 -35
-9z"/>
<path d="M1314 2694 c3 -9 6 -18 6 -20 0 -2 7 -4 15 -4 8 0 15 9 15 20 0 14
-7 20 -21 20 -15 0 -19 -4 -15 -16z"/>
<path d="M1646 2694 c-9 -23 -8 -24 13 -24 19 0 35 23 24 34 -12 11 -31 6 -37
-10z"/>
<path d="M1262 2683 c5 -26 38 -29 38 -4 0 15 -6 21 -21 21 -14 0 -19 -5 -17
-17z"/>
<path d="M1703 2684 c-7 -19 11 -39 26 -30 16 10 13 33 -4 40 -9 3 -18 -1 -22
-10z"/>
<path d="M1216 2681 c-9 -14 5 -42 18 -38 15 5 14 39 -1 44 -6 2 -14 0 -17 -6z"/>
<path d="M1753 2664 c-9 -23 11 -38 26 -20 13 16 7 36 -10 36 -5 0 -12 -7 -16
-16z"/>
<path d="M1161 2661 c-18 -12 -5 -31 20 -31 14 0 19 6 17 17 -4 20 -18 26 -37
14z"/>
<path d="M1803 2645 c-3 -9 -3 -18 0 -22 10 -10 37 6 37 22 0 20 -29 20 -37 0z"/>
<path d="M1101 2636 c-9 -10 -8 -16 4 -26 19 -15 47 3 38 26 -7 18 -27 18 -42
0z"/>
<path d="M1853 2624 c-9 -23 11 -38 26 -20 13 16 7 36 -10 36 -5 0 -12 -7 -16
-16z"/>
<path d="M1050 2610 c-13 -8 -13 -11 2 -27 21 -20 43 -6 32 20 -7 19 -13 21
-34 7z"/>
<path d="M1900 2604 c-9 -10 -10 -18 -2 -26 12 -12 32 -2 32 17 0 21 -16 26
-30 9z"/>
<path d="M1003 2582 c-10 -6 -10 -12 1 -28 17 -23 41 -8 30 19 -7 19 -13 20
-31 9z"/>
<path d="M1943 2574 c-9 -23 11 -38 26 -20 13 16 7 36 -10 36 -5 0 -12 -7 -16
-16z"/>
<path d="M1986 2543 c-10 -25 10 -39 30 -22 16 12 17 12 11 -3 -4 -12 0 -19
14 -23 36 -12 35 6 -1 36 -41 33 -46 35 -54 12z"/>
<path d="M1384 2551 c-88 -21 -146 -55 -206 -119 -112 -120 -141 -261 -85
-417 31 -87 136 -191 232 -230 85 -34 197 -39 286 -12 115 34 229 146 271 264
30 85 22 206 -18 288 -38 77 -120 159 -197 196 -55 25 -79 31 -182 43 -16 2
-62 -4 -101 -13z m220 -55 c38 -13 77 -21 87 -19 11 3 19 0 19 -7 0 -7 -7 -10
-17 -6 -10 4 3 -12 30 -35 170 -147 179 -354 24 -516 -33 -35 -56 -63 -51 -63
12 0 86 70 108 101 8 13 18 20 21 17 8 -8 -117 -138 -133 -138 -8 0 -10 5 -6
12 5 8 2 9 -12 3 -89 -38 -132 -47 -204 -42 -41 3 -101 15 -133 27 -97 36
-187 146 -213 257 -12 53 -24 80 -24 55 0 -7 -4 -12 -10 -12 -5 0 -10 7 -10
15 0 8 6 15 13 15 7 0 18 22 24 53 16 77 51 146 99 193 56 57 85 74 157 95 85
24 150 23 231 -5z m-326 -17 c-2 -6 -7 -10 -11 -9 -4 0 -21 -14 -37 -32 -16
-17 -33 -29 -36 -25 -4 4 -5 8 -3 10 2 1 21 17 42 35 40 34 51 39 45 21z m510
-80 c34 -39 38 -49 22 -49 -5 0 -10 5 -10 10 0 6 -18 29 -40 51 -22 22 -40 43
-40 45 0 10 37 -22 68 -57z m-651 -384 c13 -30 -1 -44 -16 -16 -6 11 -11 24
-11 30 0 19 15 11 27 -14z m30 -59 c-3 -8 1 -17 10 -20 9 -4 13 -9 9 -13 -7
-7 -46 25 -46 39 0 4 7 8 16 8 10 0 14 -6 11 -14z"/>
<path d="M1430 2495 c0 -2 5 -15 11 -29 8 -18 9 -33 1 -55 -9 -25 -8 -31 3
-31 9 0 12 6 8 17 -4 11 -3 14 5 9 15 -9 16 -70 2 -96 -7 -13 -7 -21 0 -25 15
-10 12 -34 -12 -81 l-22 -44 21 -28 c14 -19 22 -48 25 -95 5 -76 1 -79 -67
-48 -103 47 -143 154 -96 257 22 48 59 80 112 96 22 6 39 15 39 20 0 11 -49
-1 -79 -19 -20 -13 -25 -13 -32 -2 -13 21 -11 33 5 20 14 -12 46 -5 46 10 0 5
-11 32 -25 58 -20 41 -28 48 -46 44 -14 -4 -19 -11 -16 -24 6 -21 -3 -25 -20
-8 -7 7 -13 7 -17 0 -4 -5 5 -18 18 -27 16 -9 28 -29 32 -50 3 -19 10 -34 16
-34 5 0 -4 -17 -20 -37 -57 -73 -64 -150 -22 -232 10 -21 31 -46 45 -55 15
-10 24 -20 21 -23 -3 -3 -12 0 -21 7 -9 7 -17 11 -18 9 -14 -18 -67 -112 -65
-113 24 -17 78 -46 85 -46 6 0 16 21 23 47 6 26 16 53 22 60 6 8 6 13 1 13
-16 0 -55 -48 -48 -59 9 -16 -4 -53 -17 -45 -6 4 -6 10 1 17 21 21 11 30 -11
11 l-21 -19 19 33 c10 18 28 44 39 58 18 22 24 24 48 15 16 -6 39 -11 52 -11
30 0 36 -20 25 -82 -14 -72 -21 -73 -14 -1 4 40 3 63 -5 67 -7 5 -11 -4 -11
-26 0 -18 -3 -50 -6 -70 -6 -34 -4 -38 15 -38 13 0 21 6 21 18 0 9 5 24 11 32
8 12 9 7 6 -17 -3 -27 0 -33 15 -33 19 0 19 1 -3 90 -13 53 -13 53 34 65 84
21 147 92 147 165 l0 30 73 -2 72 -2 -62 -3 c-83 -5 -81 -23 2 -23 58 0 65 2
65 20 0 17 -7 20 -52 20 -73 0 -98 9 -98 32 0 21 -29 82 -36 75 -2 -2 3 -20
11 -40 22 -52 20 -60 -14 -54 -16 3 -31 3 -35 0 -5 -5 -59 -8 -81 -4 -9 2 35
41 45 41 6 0 10 7 10 15 0 9 6 12 15 9 10 -4 15 0 15 10 0 9 6 19 14 22 18 7
80 84 73 91 -3 3 -21 -7 -40 -21 -41 -31 -42 -31 -74 -6 -14 11 -41 20 -59 20
-18 0 -36 5 -39 10 -3 6 3 10 14 10 19 0 21 6 21 60 0 60 0 60 -29 60 -16 0
-32 -6 -35 -12 -5 -10 -7 -10 -12 0 -5 11 -24 17 -24 7z m60 -47 c-1 -35 -3
-40 -11 -25 -10 17 -5 67 6 67 3 0 5 -19 5 -42z m-135 -25 c30 -58 30 -60 2
-35 -23 22 -43 72 -27 72 3 0 15 -17 25 -37z m222 -94 l43 -21 -32 -34 c-18
-19 -41 -34 -51 -34 -13 0 -17 -5 -13 -15 3 -8 1 -15 -4 -15 -11 0 -16 8 -24
43 -5 20 -3 27 9 27 17 0 20 16 5 25 -5 3 -10 15 -10 26 0 25 23 24 77 -2z
m38 -179 c3 -6 15 -5 30 2 32 15 39 7 31 -37 -12 -62 -79 -124 -152 -139 l-31
-7 5 73 c3 41 11 78 19 86 7 7 13 18 13 23 0 12 77 12 85 -1z"/>
<path d="M1626 2408 c-30 -39 -35 -52 -25 -59 9 -5 16 -4 18 4 2 7 17 31 33
54 41 60 19 61 -26 1z"/>
<path d="M1187 2354 c-4 -4 1 -13 11 -21 16 -13 15 -14 -5 -8 -12 3 -24 1 -27
-4 -4 -6 11 -15 32 -20 24 -7 44 -20 52 -36 7 -14 17 -25 22 -25 11 0 10 18
-2 25 -17 11 -11 23 9 18 10 -2 21 1 24 9 3 10 -5 14 -31 15 -27 1 -42 8 -57
27 -12 15 -24 23 -28 20z"/>
<path d="M1731 2324 c-24 -19 -48 -34 -53 -34 -5 0 -6 -5 -3 -11 5 -7 15 -5
31 5 13 9 36 23 52 32 26 16 26 16 -3 -9 -16 -15 -38 -29 -47 -32 -10 -4 -18
-11 -18 -17 0 -13 17 -6 69 27 44 27 47 32 28 56 -11 15 -17 13 -56 -17z"/>
<path d="M1130 2205 c0 -7 8 -16 18 -18 16 -4 16 -5 0 -6 -10 0 -18 -6 -18
-11 0 -6 15 -8 39 -4 22 3 47 1 57 -5 15 -8 8 -10 -38 -11 -32 0 -58 -4 -58
-10 0 -6 28 -10 65 -10 58 0 65 2 65 20 0 12 -7 20 -17 20 -16 1 -16 2 1 15
26 20 15 28 -18 15 -20 -7 -36 -6 -61 5 -29 12 -35 12 -35 0z"/>
<path d="M1713 2196 c5 -14 127 -13 127 1 0 8 -21 11 -65 10 -36 -1 -63 -6
-62 -11z"/>
<path d="M1205 2079 c-27 -18 -52 -33 -53 -35 -10 -8 34 -64 46 -59 8 3 26 8
40 11 l27 5 -27 -21 c-16 -12 -28 -29 -28 -38 0 -11 15 -2 45 28 25 24 45 47
45 50 0 3 -7 13 -15 24 -14 18 -15 18 -59 -8 -24 -14 -48 -26 -53 -26 -4 1 5
8 20 16 16 9 27 18 24 21 -3 2 -15 0 -26 -7 -34 -17 -24 -4 13 19 38 24 59 28
30 6 -22 -17 -12 -20 17 -5 18 10 28 50 12 50 -5 0 -30 -14 -58 -31z m72 -46
c-9 -8 -87 -43 -87 -38 0 7 66 45 79 45 8 0 11 -3 8 -7z"/>
<path d="M1683 2051 l-22 -38 45 -31 c24 -18 48 -32 52 -32 8 0 52 66 52 78 0
4 -21 19 -47 32 -27 14 -50 26 -53 27 -3 2 -15 -14 -27 -36z m82 -73 c5 -4 6
-8 2 -8 -11 0 -87 49 -87 56 0 6 67 -32 85 -48z"/>
<path d="M1600 1965 c0 -6 6 -33 14 -62 8 -28 11 -54 8 -57 -3 -3 -1 -6 5 -6
18 0 22 12 12 32 -16 29 0 37 21 10 12 -15 21 -19 26 -11 4 6 -13 31 -40 57
-25 26 -46 42 -46 37z"/>
<path d="M781 2094 c-12 -31 -20 -58 -18 -61 2 -2 14 22 25 54 12 31 20 59 18
61 -2 2 -14 -22 -25 -54z"/>
<path d="M1000 2373 c-8 -3 -18 -11 -22 -17 -5 -8 -8 -7 -8 2 0 6 -5 12 -11
12 -8 0 -8 -5 1 -15 16 -19 20 -19 50 5 24 19 20 24 -10 13z"/>
<path d="M474 2285 c-21 -51 -18 -96 11 -135 41 -56 57 -55 19 1 -37 56 -41
82 -20 134 8 19 13 35 10 35 -3 0 -12 -16 -20 -35z"/>
<path d="M1930 1945 c-23 -28 -24 -89 -1 -133 39 -76 128 -97 182 -43 37 37
37 62 -2 106 -50 57 -140 70 -155 23 -8 -25 18 -54 37 -42 16 10 22 44 8 44
-5 0 -9 -7 -9 -15 0 -8 -5 -15 -11 -15 -15 0 -6 21 13 33 20 13 74 -8 82 -31
3 -9 13 -27 22 -39 15 -21 14 -23 -10 -48 -16 -15 -36 -25 -55 -25 -38 0 -49
18 -25 39 44 37 57 60 44 76 -14 17 -35 21 -25 4 4 -5 4 -21 1 -35 -5 -18 -13
-24 -35 -24 -37 0 -61 23 -61 59 0 46 22 66 72 65 30 -1 37 1 23 7 -33 13 -82
10 -95 -6z"/>
<path d="M2072 1836 c10 -12 -24 -46 -46 -46 -14 0 -17 -3 -9 -11 8 -8 19 -6
42 5 32 17 40 40 19 52 -7 4 -10 4 -6 0z"/>
<path d="M423 1709 c-24 -9 -31 -43 -12 -54 18 -12 56 4 62 25 7 26 -20 41
-50 29z"/>
<path d="M825 1700 c-3 -5 12 -14 33 -19 46 -13 83 -50 86 -85 1 -29 13 -34
22 -11 10 25 -17 75 -49 92 -44 22 -86 33 -92 23z"/>
<path d="M2503 1705 c-26 -19 -6 -50 33 -50 24 0 29 4 29 24 0 30 -35 45 -62
26z"/>
<path d="M1812 1757 c-9 -10 -7 -19 4 -35 17 -24 43 -29 62 -10 16 16 15 23
-4 42 -19 19 -48 21 -62 3z"/>
<path d="M1092 1758 c-17 -17 -15 -47 4 -55 27 -10 66 14 62 40 -3 25 -45 36
-66 15z"/>
<path d="M2105 1696 c-68 -21 -84 -34 -91 -72 -4 -22 -2 -40 5 -47 8 -8 11 -4
11 17 0 32 48 86 78 86 11 0 25 7 32 15 7 8 11 15 9 14 -2 0 -22 -6 -44 -13z"/>
<path d="M732 1608 c-18 -18 -14 -38 7 -38 14 0 17 6 13 25 -5 29 -4 29 -20
13z"/>
<path d="M764 1583 c4 -12 2 -24 -4 -28 -6 -3 -8 -11 -5 -16 4 -5 -15 -9 -42
-10 -45 -1 -46 -1 -18 -10 35 -11 111 -3 121 13 4 5 -8 24 -26 42 -27 26 -31
28 -26 9z"/>
<path d="M2208 1593 c-24 -12 -26 -16 -15 -33 6 -11 19 -20 27 -20 12 1 12 3
-2 14 -25 19 -22 23 12 18 32 -5 34 -3 24 22 -7 19 -10 19 -46 -1z"/>
<path d="M1430 1519 c-35 -10 -60 -33 -60 -55 0 -9 9 -8 38 2 49 17 105 17
147 0 34 -15 35 -14 35 8 0 38 -93 64 -160 45z m131 -26 c9 -9 0 -9 -31 -1
-30 8 -55 8 -88 0 -52 -12 -68 -8 -31 8 30 12 136 7 150 -7z"/>
<path d="M1833 1343 c92 -2 242 -2 335 0 92 1 16 3 -168 3 -184 0 -260 -2
-167 -3z"/>
<path d="M1903 1322 c-6 -4 59 -6 145 -4 254 4 281 8 67 10 -110 1 -205 -2
-212 -6z"/>
<path d="M1098 1313 c17 -2 47 -2 65 0 17 2 3 4 -33 4 -36 0 -50 -2 -32 -4z"/>
<path d="M1195 498 c-7 -18 -10 -37 -5 -42 5 -4 6 -23 3 -40 -6 -39 25 -83 51
-73 23 9 51 76 37 90 -6 6 -7 15 -2 21 6 7 4 24 -4 44 -11 24 -20 32 -40 32
-20 0 -29 -8 -40 -32z"/>
<path d="M283 673 c-13 -9 -23 -23 -23 -33 0 -20 31 -50 52 -50 40 0 50 62 13
85 -17 11 -24 11 -42 -2z m44 -51 c-12 -11 -18 -12 -35 -1 -20 12 -20 15 -5
31 15 17 17 17 35 1 16 -14 17 -19 5 -31z"/>
</g>
</svg>
